<?xml version="1.0" encoding="utf-8"?>
<!-- Uploaded to: SVG Repo, www.svgrepo.com, Generator: SVG Repo Mixer Tools -->
<svg width="800px" height="800px" viewBox="0 -144 1011 1011" fill="none" xmlns="http://www.w3.org/2000/svg">
<g filter="url(#filter0_f_3_98)">
<path d="M795.8 695.988C837.962 683.26 914.72 648.479 942.306 622.737C974.117 595.793 921.364 563.337 913.536 558.794C905.707 554.252 403.461 303.91 336.359 274.382C269.257 244.855 97.5521 348.9 46.1011 377.462C4.16222 400.743 33.799 417.211 39.3908 421.753C44.9827 426.296 428.975 625.008 544.167 679.521C631.402 720.803 713.041 720.973 795.8 695.988Z" fill="#000000" fill-opacity="0.2"/>
</g>
<path fill-rule="evenodd" clip-rule="evenodd" d="M430.421 448.853L481.855 425.001L481.87 425.033C482.198 424.873 482.528 424.719 482.862 424.569C513.5 410.82 557.207 441.969 580.485 494.143C603.763 546.316 597.797 599.757 567.16 613.506C566.722 613.703 566.282 613.89 565.84 614.068L516.293 637.077L488.774 576.759C481.531 567.168 474.976 556.124 469.537 543.933C464.52 532.689 460.862 521.387 458.516 510.435L430.421 448.853Z" fill="#000000"/>
<ellipse rx="60.8286" ry="103.322" transform="matrix(-0.911976 0.409256 0.40762 0.913593 473.999 542.756)" fill="#000000"/>
<g filter="url(#filter1_i_3_98)">
<ellipse rx="45.6236" ry="77.4953" transform="matrix(-0.911976 0.409256 0.40762 0.913593 472.258 542.805)" fill="url(#paint0_linear_3_98)"/>
</g>
<g filter="url(#filter2_di_3_98)">
<path fill-rule="evenodd" clip-rule="evenodd" d="M473.77 487.398C480.466 491.285 487.078 497.125 493.036 504.51L479.735 527.614C477.859 525.411 475.833 523.598 473.77 522.255L473.77 487.398ZM473.77 565.737C476.821 567.02 479.836 567.2 482.456 566.025C482.496 566.007 482.536 565.988 482.576 565.97L501.993 599.698C500.897 600.442 499.738 601.092 498.515 601.641C491.088 604.974 482.43 604.077 473.77 599.824L473.77 565.737ZM471.425 598.591L471.425 564.54C469.071 563.126 466.75 561.094 464.626 558.561L451.585 581.214C457.717 588.789 464.537 594.729 471.425 598.591ZM471.425 520.94L471.425 486.118C462.542 481.581 453.63 480.55 446.013 483.968C443.893 484.92 441.962 486.176 440.225 487.702L459.852 521.795C460.522 521.209 461.266 520.726 462.082 520.36C464.89 519.1 468.151 519.398 471.425 520.94ZM437.687 558.321C441.163 566.111 445.37 573.148 450.022 579.228L463.07 556.564C461.49 554.385 460.057 551.916 458.851 549.214C458.662 548.789 458.48 548.364 458.307 547.939L435.856 553.972C436.43 555.422 437.04 556.872 437.687 558.321ZM481.303 529.593L494.597 506.5C499.213 512.553 503.388 519.549 506.841 527.288C507.533 528.838 508.183 530.39 508.792 531.941L486.067 538.048C485.944 537.756 485.818 537.463 485.687 537.171C484.44 534.374 482.948 531.827 481.303 529.593ZM435.01 551.768C430.919 540.748 428.902 529.833 428.85 520.021L455.447 535.421C455.582 538.66 456.25 542.172 457.476 545.731L435.01 551.768ZM486.921 540.25C488.401 544.408 489.12 548.512 489.117 552.205L515.662 567.575C515.888 557.349 513.922 545.813 509.631 534.147L486.921 540.25ZM515.552 570.224L488.986 554.841C488.553 559.095 487.051 562.601 484.554 564.704L503.879 598.272C510.841 592.437 514.812 582.378 515.552 570.224ZM428.885 517.329L455.461 532.717C455.658 529.1 456.587 525.951 458.208 523.64L438.487 489.385C432.529 495.737 429.262 505.65 428.885 517.329Z" fill="#4C4C4C"/>
</g>
<path fill-rule="evenodd" clip-rule="evenodd" d="M430.428 447.766L481.863 423.914L481.879 423.949C482.201 423.793 482.526 423.642 482.853 423.495C513.491 409.746 557.198 440.895 580.476 493.069C603.753 545.242 597.787 598.683 567.15 612.433C566.687 612.64 566.222 612.837 565.754 613.024L516.301 635.99L488.823 575.762C481.557 566.153 474.982 555.083 469.528 542.859C464.497 531.583 460.832 520.249 458.487 509.269L430.428 447.766Z" fill="#000000"/>
<path d="M418.158 567.65C441.419 619.783 485.111 650.899 515.749 637.15C546.386 623.401 552.367 569.994 529.107 517.861C505.847 465.729 460.839 431.806 430.201 445.555C399.564 459.303 394.898 515.518 418.158 567.65Z" fill="#242424"/>
<g filter="url(#filter3_i_3_98)">
<ellipse rx="42.7617" ry="74.7297" transform="matrix(-0.939744 0.342056 0.316393 0.948614 472.817 542.802)" fill="url(#paint1_linear_3_98)"/>
</g>
<g filter="url(#filter4_di_3_98)">
<path fill-rule="evenodd" clip-rule="evenodd" d="M443.981 556.289C453.419 582.048 471.941 598.882 487.341 596.031L478.148 569.106C471.395 569.026 463.841 561.964 459.415 551.382L443.981 556.289ZM441.795 549.586C434.508 524.177 438.8 500.037 451.808 491.964L461.006 518.901C456 523.492 454.406 533.745 457.183 544.694L441.795 549.586ZM486.677 535.319C482.357 524.131 474.549 516.554 467.571 516.394L458.369 489.446C473.983 486.686 492.758 504.075 502.021 530.441L486.677 535.319ZM488.727 542.064L504.118 537.172C510.888 562.033 506.578 585.441 493.884 593.459L484.686 566.52C489.435 562.072 491.062 552.474 488.727 542.064Z" fill="#A9A8A8"/>
</g>
<path fill-rule="evenodd" clip-rule="evenodd" d="M70.4993 297.573L109.031 279.705L109.038 279.721C109.279 279.604 109.522 279.491 109.766 279.381C132.718 269.081 165.461 292.416 182.899 331.501C200.338 370.587 195.869 410.621 172.917 420.921C172.64 421.045 172.362 421.165 172.082 421.279L134.83 438.579L114.243 393.456C108.798 386.256 103.871 377.961 99.7837 368.801C96.0137 360.351 93.2676 351.857 91.5108 343.628L70.4993 297.573Z" fill="#000000"/>
<ellipse rx="45.5691" ry="77.4027" transform="matrix(-0.945518 0.324327 0.32255 0.946978 103.138 367.921)" fill="#000000"/>
<g filter="url(#filter5_i_3_98)">
<ellipse rx="34.1785" ry="58.0548" transform="matrix(-0.911976 0.409256 0.40762 0.913593 101.827 367.956)" fill="url(#paint2_linear_3_98)"/>
</g>
<g filter="url(#filter6_di_3_98)">
<path fill-rule="evenodd" clip-rule="evenodd" d="M103.52 326.801C108.329 329.706 113.064 333.947 117.349 339.255L107.389 356.555C106.165 355.122 104.857 353.909 103.52 352.957L103.52 326.801ZM103.52 385.361C105.421 386.043 107.286 386.14 108.961 385.542L123.564 410.908C122.895 411.33 122.195 411.705 121.465 412.033C116.07 414.454 109.809 413.896 103.52 410.956L103.52 385.361ZM101.175 409.751L101.175 384.234C99.5562 383.261 97.9582 381.898 96.4766 380.212L86.6946 397.204C91.1886 402.655 96.1576 406.939 101.175 409.751ZM101.175 351.572L101.175 325.493C94.5194 322.092 87.8412 321.319 82.1333 323.88C80.5405 324.595 79.0903 325.539 77.7859 326.687L92.4906 352.23C92.9973 351.784 93.5607 351.417 94.1796 351.139C96.282 350.195 98.7236 350.418 101.175 351.572ZM75.896 379.581C78.4969 385.41 81.6451 390.677 85.1256 395.228L94.905 378.241C93.727 376.613 92.6587 374.771 91.7591 372.754C91.6978 372.617 91.6377 372.48 91.5787 372.342L74.7421 376.867C75.1079 377.772 75.4925 378.677 75.896 379.581ZM108.941 358.56L118.904 341.255C122.213 345.674 125.209 350.745 127.702 356.332C128.219 357.492 128.706 358.652 129.161 359.812L112.146 364.385C112.054 364.167 111.96 363.95 111.863 363.733C111.021 361.845 110.031 360.109 108.941 358.56ZM73.8885 374.665C70.9199 366.668 69.4103 358.745 69.2835 351.575L89.25 363.136C89.4116 365.359 89.8995 367.735 90.7273 370.14L73.8885 374.665ZM112.978 366.592C113.959 369.521 114.436 372.4 114.433 375.005L134.31 386.515C134.477 379.014 133.068 370.572 129.992 362.02L112.978 366.592ZM134.184 389.154L114.257 377.616C113.851 380.521 112.749 382.908 110.995 384.374L125.471 409.519C130.568 405.255 133.528 397.971 134.184 389.154ZM69.3022 348.874L89.2189 360.406C89.3498 357.983 89.9188 355.841 90.9039 354.175L76.0696 328.407C71.8761 333.178 69.5748 340.406 69.3022 348.874Z" fill="#4C4C4C"/>
</g>
<path fill-rule="evenodd" clip-rule="evenodd" d="M70.4847 296.757L109.016 278.889L109.021 278.899C109.263 278.782 109.506 278.668 109.752 278.558C132.704 268.258 165.446 291.593 182.885 330.679C200.323 369.764 195.853 409.799 172.902 420.099C172.668 420.204 172.433 420.305 172.198 420.403L134.815 437.763L114.221 392.624C108.779 385.426 103.854 377.135 99.7691 367.978C96.0011 359.533 93.2559 351.043 91.4991 342.819L70.4847 296.757Z" fill="#000000"/>
<path d="M56.7935 379.461C67.1326 420.958 97.3784 449.1 124.349 442.318C151.32 435.537 164.803 396.399 154.464 354.902C144.125 313.405 113.272 283.022 86.3008 289.803C59.3298 296.585 46.4544 337.964 56.7935 379.461Z" fill="#242424"/>
<g filter="url(#filter7_i_3_98)">
<ellipse rx="32.0345" ry="55.9829" transform="matrix(-0.963522 0.267857 0.241582 0.970366 99.325 370.299)" fill="url(#paint3_linear_3_98)"/>
</g>
<g filter="url(#filter8_di_3_98)">
<path fill-rule="evenodd" clip-rule="evenodd" d="M77.5537 380.421C83.0332 398.279 94.4782 410.739 105.296 411.007L99.8723 389.865C95.8221 388.468 91.872 383.907 89.4367 377.641L77.5537 380.421ZM75.8133 373.588C72.0669 355.233 75.994 338.33 85.0539 332.097L90.4726 353.221C87.498 356.899 86.3045 363.576 87.5571 370.84L75.8133 373.588ZM110.134 365.557C107.562 356.95 102.175 350.833 96.9736 350.3L91.6744 329.642C103.503 328.469 116.526 342.556 121.91 362.802L110.134 365.557ZM111.476 372.484L123.393 369.695C126.406 387.977 121.793 404.334 112.135 409.407L106.831 388.729C110.345 385.91 112.124 379.657 111.476 372.484Z" fill="#A9A8A8"/>
</g>
<g filter="url(#filter9_ii_3_98)">
<path d="M35.7894 345.85C36.2011 351.189 38.4274 355.711 41.4851 359.422C44.4412 363.01 50.1558 360.829 50.9123 356.242C51.525 352.528 52.354 346.997 53.5007 338.5C57.9038 305.871 81.0004 293.306 95.0281 296.374C110.972 299.862 125.249 313.038 133.823 335.06C140.738 352.819 144.902 362.852 150.035 403.176C150.183 404.34 150.663 405.403 151.632 406.063C172.484 420.275 409.302 540.597 408.512 537.749C406.373 530.044 406.32 493.6 413.991 475.83C429.06 440.925 452.583 444.254 465.225 446.185C478.627 448.233 509.769 464.58 525.939 497.474C551.582 549.639 545.207 585.072 551.582 603.713C553.674 609.83 655.656 648.451 691.925 657.55C782.612 684.576 910.699 592.502 934.859 574.67C959.019 556.838 960.984 504.402 957.433 446.185C957.487 412.16 950.203 394.521 944.994 389.091C920.083 363.127 860.986 321.025 823.179 300.703C822.556 300.368 821.987 299.918 821.509 299.396C729.13 198.641 723.239 186.079 691.437 170.625C626.8 139.213 363.618 32.3476 305.752 32.3476C271.559 32.3476 151.182 71.2248 118.667 96.0078C92.9065 115.642 68.2213 159.151 55.0921 187.665C54.8347 188.224 54.6713 188.779 54.5917 189.39C52.0138 209.155 47.0324 267.502 41.7978 273.179C35.1532 280.386 34.9055 334.386 35.7894 345.85Z" fill="url(#paint4_linear_3_98)"/>
</g>
<mask id="mask0_3_98" style="mask-type:alpha" maskUnits="userSpaceOnUse" x="35" y="32" width="924" height="631">
<path d="M35.784 345.849C36.1957 351.188 38.422 355.711 41.4797 359.421C44.4358 363.009 49.8972 360.774 50.5729 356.175C51.1131 352.499 51.8801 347.053 53.0007 338.75C57.4038 306.122 80.995 293.305 95.0227 296.374C110.967 299.861 125.243 313.037 133.818 335.059C140.733 352.818 144.897 362.851 150.029 403.176C150.177 404.339 150.657 405.402 151.626 406.063C172.478 420.274 409.297 540.596 408.507 537.748C406.368 530.043 406.315 493.599 413.986 475.829C429.055 440.924 452.577 444.253 465.22 446.185C478.621 448.232 509.764 464.579 525.934 497.473C551.577 549.639 545.202 585.071 551.577 603.712C553.669 609.829 655.651 648.45 691.92 657.549C782.607 684.575 910.694 592.501 934.854 574.669C959.013 556.837 960.979 504.402 957.428 446.185C957.482 412.159 950.198 394.52 944.988 389.09C920.077 363.126 860.981 321.024 823.174 300.702C822.55 300.367 821.982 299.918 821.503 299.396C729.111 198.639 720.645 185.843 674.387 163.363C609.75 131.952 363.613 32.3467 305.747 32.3467C271.554 32.3467 151.177 71.2239 118.661 96.007C92.9011 115.641 68.2159 159.15 55.0868 187.664C54.8294 188.223 54.6659 188.778 54.5863 189.389C52.0084 209.154 47.027 267.501 41.7925 273.179C35.1478 280.385 34.9001 334.385 35.784 345.849Z" fill="url(#paint5_linear_3_98)"/>
</mask>
<g mask="url(#mask0_3_98)">
<g filter="url(#filter10_ddii_3_98)">
<path d="M757.091 512.207C733.401 513.909 690.552 518.65 647.413 494.916C643.219 492.608 636.253 498.731 638.352 503.033C645.733 518.156 654.356 534.975 662.369 539.156C677.954 547.289 722.64 562.58 765.485 554.904C765.694 554.867 765.902 554.84 766.114 554.853C770.737 555.133 782.276 564.108 792.527 568.061C808.743 572.565 879.734 534.03 897.629 523.918C935.408 502.57 948.315 486.922 950.327 482.778C953.469 476.306 951.353 462.929 951.979 458.755C952.493 455.325 955.713 448 956.844 445.499C957.101 444.93 957.236 444.328 957.229 443.704C957.186 439.925 956.855 425.464 954.338 413.872C954.271 413.564 954.236 413.249 954.234 412.933C954.101 391.273 944.919 376.559 944.922 387.887C944.922 403.55 940.878 422.361 929.548 431.422C929.29 431.629 929.11 431.795 928.841 431.988C921.338 437.371 790.536 509.803 757.091 512.207Z" fill="#272727"/>
</g>
<mask id="mask1_3_98" style="mask-type:alpha" maskUnits="userSpaceOnUse" x="635" y="383" width="323" height="186">
<path d="M757.091 512.207C732.501 513.974 687.267 519.015 642.494 492.084C639.365 490.202 634.274 494.646 635.87 497.93C643.751 514.141 653.439 534.496 662.369 539.156C677.963 547.294 722.691 562.598 765.56 554.891C765.719 554.862 765.875 554.842 766.037 554.849C770.608 555.033 782.219 564.086 792.527 568.061C808.743 572.565 879.734 534.03 897.629 523.918C935.408 502.57 949.967 485.721 951.979 481.577C955.121 475.105 951.353 462.179 951.979 458.004C952.5 454.522 955.811 447.548 956.894 445.333C957.118 444.875 957.236 444.377 957.231 443.867C957.195 440.35 956.891 425.546 954.314 413.763C954.262 413.528 954.236 413.287 954.235 413.047C954.133 391.324 944.919 376.539 944.922 387.887C944.922 403.593 940.856 422.463 929.456 431.496C929.258 431.652 929.151 431.756 928.95 431.908C922.723 436.603 790.713 509.79 757.091 512.207Z" fill="#211F1F"/>
</mask>
<g mask="url(#mask1_3_98)">
<g filter="url(#filter11_ddii_3_98)">
<path d="M757.091 512.207C733.4 513.909 690.546 518.651 647.405 494.911C643.212 492.604 636.249 498.723 638.348 503.024C645.729 518.149 654.355 534.974 662.369 539.156C677.954 547.289 722.64 562.58 765.486 554.904C765.694 554.867 765.902 554.84 766.113 554.853C770.736 555.133 782.276 564.108 792.527 568.061C808.743 572.565 879.734 534.03 897.629 523.918C935.408 502.57 947.565 487.372 949.576 483.229C952.719 476.756 950.603 462.329 951.228 458.155C951.729 454.81 955.283 448.151 956.677 445.635C957.041 444.979 957.236 444.253 957.227 443.503C957.174 439.436 956.812 425.267 954.338 413.872C954.271 413.564 954.236 413.249 954.234 412.934C954.101 391.273 944.919 376.559 944.922 387.887C944.922 403.55 940.878 422.361 929.548 431.422C929.29 431.629 929.11 431.795 928.841 431.987C921.341 437.369 790.537 509.803 757.091 512.207Z" fill="#272727"/>
</g>
<g filter="url(#filter12_d_3_98)">
<path d="M943.321 397.153C943.371 397.231 943.422 397.311 943.473 397.393C944.358 398.81 945.471 400.844 946.378 403.307C948.194 408.238 949.151 414.766 945.986 421.551C945.082 423.488 943.345 425.592 941.394 426.803C939.471 427.997 937.689 428.159 936.163 427.05C935.101 426.279 933.685 425.674 932.276 425.197C930.839 424.711 929.286 424.316 927.87 424.006C926.96 423.807 926.096 423.641 925.343 423.507L943.321 397.153Z" stroke="white" stroke-opacity="0.9" stroke-width="3.41524"/>
</g>
<g filter="url(#filter13_d_3_98)">
<path d="M678.695 503.395L762.471 504.656C762.472 504.658 762.473 504.661 762.473 504.663C762.705 505.334 763 506.308 763.244 507.496C763.733 509.883 763.998 513.056 763.182 516.336C762.375 519.58 760.497 523 756.574 525.937C752.622 528.895 746.509 531.425 737.146 532.681C731.586 533.427 723.894 533.4 715.99 531.9C708.081 530.4 700.084 527.449 693.808 522.447C690.416 519.743 686.248 514.399 682.849 509.572C681.18 507.201 679.731 505.005 678.695 503.395Z" stroke="white" stroke-opacity="0.9" stroke-width="3.41524"/>
</g>
</g>
<g filter="url(#filter14_ddi_3_98)">
<path d="M566.748 406.744C544.293 397.453 517.888 318.149 490.033 269.403C487.944 265.745 489.512 261.051 493.422 259.485L696.692 178.072C698.38 177.396 700.235 177.459 701.735 178.488C708.646 183.226 732.022 202.151 791.472 272.277C809.867 293.975 812.578 296.671 821.782 306.753C823.15 308.252 818.246 315.378 813.456 319.325C793.753 335.563 620.913 429.157 566.748 406.744Z" fill="url(#paint6_linear_3_98)"/>
</g>
<g filter="url(#filter15_di_3_98)">
<path d="M457.213 270.377C423.102 251.867 343.856 214.343 319.027 202.648C315.146 200.82 310.631 203.115 309.81 207.325C305.585 229.013 295.002 286.224 300.333 289.171C425.268 358.278 467.382 378.821 473.911 381.952C484.88 387.212 511.105 403.869 506.458 390.332C499.198 369.182 478.032 281.674 457.213 270.377Z" fill="url(#paint7_linear_3_98)"/>
</g>
<g filter="url(#filter16_f_3_98)">
<path d="M645.123 481.122C595.405 459.844 566.983 432.092 536.651 406.859C625.394 430.233 811.217 481.638 808.446 485.438C804.983 490.189 791.931 496.099 748.092 500.406C704.932 504.646 650.816 483.558 645.123 481.122Z" fill="url(#paint8_linear_3_98)" fill-opacity="0.21"/>
</g>
<path d="M733.749 363.973L571.494 226.814C556.405 233.12 508.726 252.913 501.731 255.54C492.668 258.943 488.788 261.854 488.788 261.854C487.052 263.59 485.802 261.862 488.788 267.22C494.155 276.848 501.846 292.783 512.937 316.307C532.509 357.818 551.121 403.01 568.022 408.009C590.434 414.638 626.79 405.735 655.778 396.172C681.69 387.623 714.53 371.781 733.749 363.973Z" fill="#C4C4C4" fill-opacity="0.2"/>
<g filter="url(#filter17_di_3_98)">
<path d="M329.806 346.769C329.806 346.097 329.422 345.484 328.818 345.19L306.485 334.332C305.324 333.767 303.974 334.613 303.974 335.906L303.974 340.436C303.974 341.109 304.359 341.723 304.964 342.016L327.297 352.831C328.458 353.393 329.806 352.547 329.806 351.256L329.806 346.769Z" fill="#323232"/>
</g>
<g filter="url(#filter18_di_3_98)">
<path d="M247.442 306.535C247.442 305.863 247.058 305.25 246.454 304.956L224.121 294.098C222.959 293.533 221.61 294.379 221.61 295.672L221.61 300.202C221.61 300.875 221.995 301.489 222.6 301.782L244.933 312.597C246.094 313.159 247.441 312.313 247.441 311.022L247.442 306.535Z" fill="#323232"/>
</g>
<g filter="url(#filter19_di_3_98)">
<path d="M137.563 114.254L281.324 184.777C284.234 186.204 285.701 189.512 284.87 192.644C281.716 204.538 274.418 234.874 271.354 271.29C270.89 276.807 135.024 210.331 119.408 197.719C103.212 184.638 115.562 140.569 129.303 116.632C130.959 113.748 134.578 112.79 137.563 114.254Z" fill="url(#paint9_linear_3_98)"/>
</g>
<g filter="url(#filter20_di_3_98)">
<path d="M105.196 134.899C118.661 112.181 120.038 103.952 111.442 102.612C100.04 108.836 66.5122 155.196 60.8126 176.332C59.7307 180.344 68.2785 178.984 77.644 172.372C87.0095 165.759 88.3653 163.295 105.196 134.899Z" fill="url(#paint10_linear_3_98)"/>
</g>
<g filter="url(#filter21_f_3_98)">
<path d="M91.4227 257.621L88.9425 256.36C89.7775 256.759 90.6042 257.18 91.4227 257.621L437.193 433.447C439.114 434.423 439.047 437.276 437.153 438.305C425.651 444.556 405.383 460.365 403.751 491.888C403.654 493.764 401.665 494.991 399.988 494.145L154.059 370.003C153.173 369.556 152.639 368.642 152.593 367.651C151.799 350.449 131.481 279.224 91.4227 257.621Z" fill="url(#paint11_linear_3_98)" fill-opacity="0.12"/>
</g>
</g>
<defs>
<filter id="filter0_f_3_98" x="14.011" y="259.16" width="948.401" height="463.84" filterUnits="userSpaceOnUse" color-interpolation-filters="sRGB">
<feFlood flood-opacity="0" result="BackgroundImageFix"/>
<feBlend mode="normal" in="SourceGraphic" in2="BackgroundImageFix" result="shape"/>
<feGaussianBlur stdDeviation="5" result="effect1_foregroundBlur_3_98"/>
</filter>
<filter id="filter1_i_3_98" x="420.015" y="469.567" width="104.486" height="146.476" filterUnits="userSpaceOnUse" color-interpolation-filters="sRGB">
<feFlood flood-opacity="0" result="BackgroundImageFix"/>
<feBlend mode="normal" in="SourceGraphic" in2="BackgroundImageFix" result="shape"/>
<feColorMatrix in="SourceAlpha" type="matrix" values="0 0 0 0 0 0 0 0 0 0 0 0 0 0 0 0 0 0 127 0" result="hardAlpha"/>
<feMorphology radius="1.17321" operator="erode" in="SourceAlpha" result="effect1_innerShadow_3_98"/>
<feOffset/>
<feGaussianBlur stdDeviation="0.586606"/>
<feComposite in2="hardAlpha" operator="arithmetic" k2="-1" k3="1"/>
<feColorMatrix type="matrix" values="0 0 0 0 0 0 0 0 0 0 0 0 0 0 0 0 0 0 0.25 0"/>
<feBlend mode="normal" in2="shape" result="effect1_innerShadow_3_98"/>
</filter>
<filter id="filter2_di_3_98" x="425.33" y="481.707" width="91.0535" height="124.307" filterUnits="userSpaceOnUse" color-interpolation-filters="sRGB">
<feFlood flood-opacity="0" result="BackgroundImageFix"/>
<feColorMatrix in="SourceAlpha" type="matrix" values="0 0 0 0 0 0 0 0 0 0 0 0 0 0 0 0 0 0 127 0" result="hardAlpha"/>
<feOffset dy="0.469285"/>
<feGaussianBlur stdDeviation="0.351963"/>
<feColorMatrix type="matrix" values="0 0 0 0 1 0 0 0 0 1 0 0 0 0 1 0 0 0 0.41 0"/>
<feBlend mode="normal" in2="BackgroundImageFix" result="effect1_dropShadow_3_98"/>
<feBlend mode="normal" in="SourceGraphic" in2="effect1_dropShadow_3_98" result="shape"/>
<feColorMatrix in="SourceAlpha" type="matrix" values="0 0 0 0 0 0 0 0 0 0 0 0 0 0 0 0 0 0 127 0" result="hardAlpha"/>
<feOffset dx="-3.51963" dy="2.34642"/>
<feGaussianBlur stdDeviation="1.75982"/>
<feComposite in2="hardAlpha" operator="arithmetic" k2="-1" k3="1"/>
<feColorMatrix type="matrix" values="0 0 0 0 0 0 0 0 0 0 0 0 0 0 0 0 0 0 0.25 0"/>
<feBlend mode="normal" in2="shape" result="effect2_innerShadow_3_98"/>
</filter>
<filter id="filter3_i_3_98" x="426.184" y="470.404" width="93.2646" height="144.795" filterUnits="userSpaceOnUse" color-interpolation-filters="sRGB">
<feFlood flood-opacity="0" result="BackgroundImageFix"/>
<feBlend mode="normal" in="SourceGraphic" in2="BackgroundImageFix" result="shape"/>
<feColorMatrix in="SourceAlpha" type="matrix" values="0 0 0 0 0 0 0 0 0 0 0 0 0 0 0 0 0 0 127 0" result="hardAlpha"/>
<feMorphology radius="1.56332" operator="erode" in="SourceAlpha" result="effect1_innerShadow_3_98"/>
<feOffset/>
<feGaussianBlur stdDeviation="0.781658"/>
<feComposite in2="hardAlpha" operator="arithmetic" k2="-1" k3="1"/>
<feColorMatrix type="matrix" values="0 0 0 0 0 0 0 0 0 0 0 0 0 0 0 0 0 0 0.25 0"/>
<feBlend mode="normal" in2="shape" result="effect1_innerShadow_3_98"/>
</filter>
<filter id="filter4_di_3_98" x="436.262" y="489.025" width="71.7065" height="108.653" filterUnits="userSpaceOnUse" color-interpolation-filters="sRGB">
<feFlood flood-opacity="0" result="BackgroundImageFix"/>
<feColorMatrix in="SourceAlpha" type="matrix" values="0 0 0 0 0 0 0 0 0 0 0 0 0 0 0 0 0 0 127 0" result="hardAlpha"/>
<feOffset dy="0.533156"/>
<feGaussianBlur stdDeviation="0.333223"/>
<feColorMatrix type="matrix" values="0 0 0 0 1 0 0 0 0 1 0 0 0 0 1 0 0 0 0.59 0"/>
<feBlend mode="normal" in2="BackgroundImageFix" result="effect1_dropShadow_3_98"/>
<feBlend mode="normal" in="SourceGraphic" in2="effect1_dropShadow_3_98" result="shape"/>
<feColorMatrix in="SourceAlpha" type="matrix" values="0 0 0 0 0 0 0 0 0 0 0 0 0 0 0 0 0 0 127 0" result="hardAlpha"/>
<feOffset dx="-1.99934" dy="1.33289"/>
<feGaussianBlur stdDeviation="0.999668"/>
<feComposite in2="hardAlpha" operator="arithmetic" k2="-1" k3="1"/>
<feColorMatrix type="matrix" values="0 0 0 0 0 0 0 0 0 0 0 0 0 0 0 0 0 0 0.25 0"/>
<feBlend mode="normal" in2="shape" result="effect2_innerShadow_3_98"/>
</filter>
<filter id="filter5_i_3_98" x="62.6897" y="313.091" width="78.2747" height="109.731" filterUnits="userSpaceOnUse" color-interpolation-filters="sRGB">
<feFlood flood-opacity="0" result="BackgroundImageFix"/>
<feBlend mode="normal" in="SourceGraphic" in2="BackgroundImageFix" result="shape"/>
<feColorMatrix in="SourceAlpha" type="matrix" values="0 0 0 0 0 0 0 0 0 0 0 0 0 0 0 0 0 0 127 0" result="hardAlpha"/>
<feMorphology radius="1.17321" operator="erode" in="SourceAlpha" result="effect1_innerShadow_3_98"/>
<feOffset/>
<feGaussianBlur stdDeviation="0.586606"/>
<feComposite in2="hardAlpha" operator="arithmetic" k2="-1" k3="1"/>
<feColorMatrix type="matrix" values="0 0 0 0 0 0 0 0 0 0 0 0 0 0 0 0 0 0 0.25 0"/>
<feBlend mode="normal" in2="shape" result="effect1_innerShadow_3_98"/>
</filter>
<filter id="filter6_di_3_98" x="65.7639" y="322.127" width="69.2633" height="93.7705" filterUnits="userSpaceOnUse" color-interpolation-filters="sRGB">
<feFlood flood-opacity="0" result="BackgroundImageFix"/>
<feColorMatrix in="SourceAlpha" type="matrix" values="0 0 0 0 0 0 0 0 0 0 0 0 0 0 0 0 0 0 127 0" result="hardAlpha"/>
<feOffset dy="0.469285"/>
<feGaussianBlur stdDeviation="0.351963"/>
<feColorMatrix type="matrix" values="0 0 0 0 1 0 0 0 0 1 0 0 0 0 1 0 0 0 0.41 0"/>
<feBlend mode="normal" in2="BackgroundImageFix" result="effect1_dropShadow_3_98"/>
<feBlend mode="normal" in="SourceGraphic" in2="effect1_dropShadow_3_98" result="shape"/>
<feColorMatrix in="SourceAlpha" type="matrix" values="0 0 0 0 0 0 0 0 0 0 0 0 0 0 0 0 0 0 127 0" result="hardAlpha"/>
<feOffset dx="-3.51963" dy="2.34642"/>
<feGaussianBlur stdDeviation="1.75982"/>
<feComposite in2="hardAlpha" operator="arithmetic" k2="-1" k3="1"/>
<feColorMatrix type="matrix" values="0 0 0 0 0 0 0 0 0 0 0 0 0 0 0 0 0 0 0.25 0"/>
<feBlend mode="normal" in2="shape" result="effect2_innerShadow_3_98"/>
</filter>
<filter id="filter7_i_3_98" x="65.6176" y="315.293" width="67.4149" height="110.011" filterUnits="userSpaceOnUse" color-interpolation-filters="sRGB">
<feFlood flood-opacity="0" result="BackgroundImageFix"/>
<feBlend mode="normal" in="SourceGraphic" in2="BackgroundImageFix" result="shape"/>
<feColorMatrix in="SourceAlpha" type="matrix" values="0 0 0 0 0 0 0 0 0 0 0 0 0 0 0 0 0 0 127 0" result="hardAlpha"/>
<feMorphology radius="1.56332" operator="erode" in="SourceAlpha" result="effect1_innerShadow_3_98"/>
<feOffset/>
<feGaussianBlur stdDeviation="0.781658"/>
<feComposite in2="hardAlpha" operator="arithmetic" k2="-1" k3="1"/>
<feColorMatrix type="matrix" values="0 0 0 0 0 0 0 0 0 0 0 0 0 0 0 0 0 0 0.25 0"/>
<feBlend mode="normal" in2="shape" result="effect1_innerShadow_3_98"/>
</filter>
<filter id="filter8_di_3_98" x="72.4028" y="329.44" width="52.5708" height="82.8993" filterUnits="userSpaceOnUse" color-interpolation-filters="sRGB">
<feFlood flood-opacity="0" result="BackgroundImageFix"/>
<feColorMatrix in="SourceAlpha" type="matrix" values="0 0 0 0 0 0 0 0 0 0 0 0 0 0 0 0 0 0 127 0" result="hardAlpha"/>
<feOffset dy="0.533156"/>
<feGaussianBlur stdDeviation="0.333223"/>
<feColorMatrix type="matrix" values="0 0 0 0 1 0 0 0 0 1 0 0 0 0 1 0 0 0 0.59 0"/>
<feBlend mode="normal" in2="BackgroundImageFix" result="effect1_dropShadow_3_98"/>
<feBlend mode="normal" in="SourceGraphic" in2="effect1_dropShadow_3_98" result="shape"/>
<feColorMatrix in="SourceAlpha" type="matrix" values="0 0 0 0 0 0 0 0 0 0 0 0 0 0 0 0 0 0 127 0" result="hardAlpha"/>
<feOffset dx="-1.99934" dy="1.33289"/>
<feGaussianBlur stdDeviation="0.999668"/>
<feComposite in2="hardAlpha" operator="arithmetic" k2="-1" k3="1"/>
<feColorMatrix type="matrix" values="0 0 0 0 0 0 0 0 0 0 0 0 0 0 0 0 0 0 0.25 0"/>
<feBlend mode="normal" in2="shape" result="effect2_innerShadow_3_98"/>
</filter>
<filter id="filter9_ii_3_98" x="35.4209" y="19.841" width="932.765" height="642.639" filterUnits="userSpaceOnUse" color-interpolation-filters="sRGB">
<feFlood flood-opacity="0" result="BackgroundImageFix"/>
<feBlend mode="normal" in="SourceGraphic" in2="BackgroundImageFix" result="shape"/>
<feColorMatrix in="SourceAlpha" type="matrix" values="0 0 0 0 0 0 0 0 0 0 0 0 0 0 0 0 0 0 127 0" result="hardAlpha"/>
<feOffset dx="9.3799" dy="-12.5065"/>
<feGaussianBlur stdDeviation="37.5196"/>
<feComposite in2="hardAlpha" operator="arithmetic" k2="-1" k3="1"/>
<feColorMatrix type="matrix" values="0 0 0 0 0 0 0 0 0 0 0 0 0 0 0 0 0 0 0.07 0"/>
<feBlend mode="normal" in2="shape" result="effect1_innerShadow_3_98"/>
<feColorMatrix in="SourceAlpha" type="matrix" values="0 0 0 0 0 0 0 0 0 0 0 0 0 0 0 0 0 0 127 0" result="hardAlpha"/>
<feOffset dy="-1.56332"/>
<feGaussianBlur stdDeviation="3.12663"/>
<feComposite in2="hardAlpha" operator="arithmetic" k2="-1" k3="1"/>
<feColorMatrix type="matrix" values="0 0 0 0 0 0 0 0 0 0 0 0 0 0 0 0 0 0 0.09 0"/>
<feBlend mode="normal" in2="effect1_innerShadow_3_98" result="effect2_innerShadow_3_98"/>
</filter>
<filter id="filter10_ddii_3_98" x="636.538" y="381.824" width="322.12" height="196.447" filterUnits="userSpaceOnUse" color-interpolation-filters="sRGB">
<feFlood flood-opacity="0" result="BackgroundImageFix"/>
<feColorMatrix in="SourceAlpha" type="matrix" values="0 0 0 0 0 0 0 0 0 0 0 0 0 0 0 0 0 0 127 0" result="hardAlpha"/>
<feOffset dy="1.07131"/>
<feGaussianBlur stdDeviation="0.714204"/>
<feColorMatrix type="matrix" values="0 0 0 0 0 0 0 0 0 0 0 0 0 0 0 0 0 0 0.57 0"/>
<feBlend mode="normal" in2="BackgroundImageFix" result="effect1_dropShadow_3_98"/>
<feColorMatrix in="SourceAlpha" type="matrix" values="0 0 0 0 0 0 0 0 0 0 0 0 0 0 0 0 0 0 127 0" result="hardAlpha"/>
<feOffset dy="-0.714204"/>
<feGaussianBlur stdDeviation="0.714204"/>
<feColorMatrix type="matrix" values="0 0 0 0 0 0 0 0 0 0 0 0 0 0 0 0 0 0 1 0"/>
<feBlend mode="normal" in2="effect1_dropShadow_3_98" result="effect2_dropShadow_3_98"/>
<feBlend mode="normal" in="SourceGraphic" in2="effect2_dropShadow_3_98" result="shape"/>
<feColorMatrix in="SourceAlpha" type="matrix" values="0 0 0 0 0 0 0 0 0 0 0 0 0 0 0 0 0 0 127 0" result="hardAlpha"/>
<feOffset dy="9.84614"/>
<feGaussianBlur stdDeviation="10.0343"/>
<feComposite in2="hardAlpha" operator="arithmetic" k2="-1" k3="1"/>
<feColorMatrix type="matrix" values="0 0 0 0 0 0 0 0 0 0 0 0 0 0 0 0 0 0 1 0"/>
<feBlend mode="normal" in2="shape" result="effect3_innerShadow_3_98"/>
<feColorMatrix in="SourceAlpha" type="matrix" values="0 0 0 0 0 0 0 0 0 0 0 0 0 0 0 0 0 0 127 0" result="hardAlpha"/>
<feOffset dy="-1.07294"/>
<feGaussianBlur stdDeviation="1.07294"/>
<feComposite in2="hardAlpha" operator="arithmetic" k2="-1" k3="1"/>
<feColorMatrix type="matrix" values="0 0 0 0 0 0 0 0 0 0 0 0 0 0 0 0 0 0 1 0"/>
<feBlend mode="normal" in2="effect3_innerShadow_3_98" result="effect4_innerShadow_3_98"/>
</filter>
<filter id="filter11_ddii_3_98" x="636.534" y="381.824" width="322.121" height="196.447" filterUnits="userSpaceOnUse" color-interpolation-filters="sRGB">
<feFlood flood-opacity="0" result="BackgroundImageFix"/>
<feColorMatrix in="SourceAlpha" type="matrix" values="0 0 0 0 0 0 0 0 0 0 0 0 0 0 0 0 0 0 127 0" result="hardAlpha"/>
<feOffset dy="1.07131"/>
<feGaussianBlur stdDeviation="0.714204"/>
<feColorMatrix type="matrix" values="0 0 0 0 0 0 0 0 0 0 0 0 0 0 0 0 0 0 0.57 0"/>
<feBlend mode="normal" in2="BackgroundImageFix" result="effect1_dropShadow_3_98"/>
<feColorMatrix in="SourceAlpha" type="matrix" values="0 0 0 0 0 0 0 0 0 0 0 0 0 0 0 0 0 0 127 0" result="hardAlpha"/>
<feOffset dy="-0.714204"/>
<feGaussianBlur stdDeviation="0.714204"/>
<feColorMatrix type="matrix" values="0 0 0 0 0 0 0 0 0 0 0 0 0 0 0 0 0 0 1 0"/>
<feBlend mode="normal" in2="effect1_dropShadow_3_98" result="effect2_dropShadow_3_98"/>
<feBlend mode="normal" in="SourceGraphic" in2="effect2_dropShadow_3_98" result="shape"/>
<feColorMatrix in="SourceAlpha" type="matrix" values="0 0 0 0 0 0 0 0 0 0 0 0 0 0 0 0 0 0 127 0" result="hardAlpha"/>
<feOffset dy="9.84614"/>
<feGaussianBlur stdDeviation="10.0343"/>
<feComposite in2="hardAlpha" operator="arithmetic" k2="-1" k3="1"/>
<feColorMatrix type="matrix" values="0 0 0 0 0 0 0 0 0 0 0 0 0 0 0 0 0 0 1 0"/>
<feBlend mode="normal" in2="shape" result="effect3_innerShadow_3_98"/>
<feColorMatrix in="SourceAlpha" type="matrix" values="0 0 0 0 0 0 0 0 0 0 0 0 0 0 0 0 0 0 127 0" result="hardAlpha"/>
<feOffset dy="-1.07294"/>
<feGaussianBlur stdDeviation="1.07294"/>
<feComposite in2="hardAlpha" operator="arithmetic" k2="-1" k3="1"/>
<feColorMatrix type="matrix" values="0 0 0 0 0 0 0 0 0 0 0 0 0 0 0 0 0 0 1 0"/>
<feBlend mode="normal" in2="effect3_innerShadow_3_98" result="effect4_innerShadow_3_98"/>
</filter>
<filter id="filter12_d_3_98" x="922.135" y="394.157" width="30.1812" height="38.1772" filterUnits="userSpaceOnUse" color-interpolation-filters="sRGB">
<feFlood flood-opacity="0" result="BackgroundImageFix"/>
<feColorMatrix in="SourceAlpha" type="matrix" values="0 0 0 0 0 0 0 0 0 0 0 0 0 0 0 0 0 0 127 0" result="hardAlpha"/>
<feOffset dx="1.13841" dy="1.41412"/>
<feGaussianBlur stdDeviation="0.707062"/>
<feColorMatrix type="matrix" values="0 0 0 0 1 0 0 0 0 1 0 0 0 0 1 0 0 0 0.24 0"/>
<feBlend mode="normal" in2="BackgroundImageFix" result="effect1_dropShadow_3_98"/>
<feBlend mode="normal" in="SourceGraphic" in2="effect1_dropShadow_3_98" result="shape"/>
</filter>
<filter id="filter13_d_3_98" x="675.297" y="501.64" width="92.6689" height="36.0568" filterUnits="userSpaceOnUse" color-interpolation-filters="sRGB">
<feFlood flood-opacity="0" result="BackgroundImageFix"/>
<feColorMatrix in="SourceAlpha" type="matrix" values="0 0 0 0 0 0 0 0 0 0 0 0 0 0 0 0 0 0 127 0" result="hardAlpha"/>
<feOffset dx="1.13841" dy="1.41412"/>
<feGaussianBlur stdDeviation="0.707062"/>
<feColorMatrix type="matrix" values="0 0 0 0 1 0 0 0 0 1 0 0 0 0 1 0 0 0 0.24 0"/>
<feBlend mode="normal" in2="BackgroundImageFix" result="effect1_dropShadow_3_98"/>
<feBlend mode="normal" in="SourceGraphic" in2="effect1_dropShadow_3_98" result="shape"/>
</filter>
<filter id="filter14_ddi_3_98" x="485.603" y="175.002" width="338.163" height="237.816" filterUnits="userSpaceOnUse" color-interpolation-filters="sRGB">
<feFlood flood-opacity="0" result="BackgroundImageFix"/>
<feColorMatrix in="SourceAlpha" type="matrix" values="0 0 0 0 0 0 0 0 0 0 0 0 0 0 0 0 0 0 127 0" result="hardAlpha"/>
<feOffset dx="-1.75084" dy="0.875419"/>
<feGaussianBlur stdDeviation="0.875419"/>
<feColorMatrix type="matrix" values="0 0 0 0 1 0 0 0 0 1 0 0 0 0 1 0 0 0 0.28 0"/>
<feBlend mode="normal" in2="BackgroundImageFix" result="effect1_dropShadow_3_98"/>
<feColorMatrix in="SourceAlpha" type="matrix" values="0 0 0 0 0 0 0 0 0 0 0 0 0 0 0 0 0 0 127 0" result="hardAlpha"/>
<feOffset dy="-0.875419"/>
<feGaussianBlur stdDeviation="0.875419"/>
<feColorMatrix type="matrix" values="0 0 0 0 1 0 0 0 0 1 0 0 0 0 1 0 0 0 0.56 0"/>
<feBlend mode="normal" in2="effect1_dropShadow_3_98" result="effect2_dropShadow_3_98"/>
<feBlend mode="normal" in="SourceGraphic" in2="effect2_dropShadow_3_98" result="shape"/>
<feColorMatrix in="SourceAlpha" type="matrix" values="0 0 0 0 0 0 0 0 0 0 0 0 0 0 0 0 0 0 127 0" result="hardAlpha"/>
<feOffset dx="-0.875419" dy="2.62626"/>
<feGaussianBlur stdDeviation="1.31313"/>
<feComposite in2="hardAlpha" operator="arithmetic" k2="-1" k3="1"/>
<feColorMatrix type="matrix" values="0 0 0 0 0 0 0 0 0 0 0 0 0 0 0 0 0 0 0.75 0"/>
<feBlend mode="normal" in2="shape" result="effect3_innerShadow_3_98"/>
</filter>
<filter id="filter15_di_3_98" x="292.829" y="202.014" width="215.08" height="197.87" filterUnits="userSpaceOnUse" color-interpolation-filters="sRGB">
<feFlood flood-opacity="0" result="BackgroundImageFix"/>
<feColorMatrix in="SourceAlpha" type="matrix" values="0 0 0 0 0 0 0 0 0 0 0 0 0 0 0 0 0 0 127 0" result="hardAlpha"/>
<feOffset dy="0.905297"/>
<feGaussianBlur stdDeviation="0.452649"/>
<feColorMatrix type="matrix" values="0 0 0 0 0.925374 0 0 0 0 0.925374 0 0 0 0 0.925374 0 0 0 0.37 0"/>
<feBlend mode="normal" in2="BackgroundImageFix" result="effect1_dropShadow_3_98"/>
<feBlend mode="normal" in="SourceGraphic" in2="effect1_dropShadow_3_98" result="shape"/>
<feColorMatrix in="SourceAlpha" type="matrix" values="0 0 0 0 0 0 0 0 0 0 0 0 0 0 0 0 0 0 127 0" result="hardAlpha"/>
<feOffset dx="-6.03563" dy="4.36889"/>
<feGaussianBlur stdDeviation="3.01781"/>
<feComposite in2="hardAlpha" operator="arithmetic" k2="-1" k3="1"/>
<feColorMatrix type="matrix" values="0 0 0 0 0 0 0 0 0 0 0 0 0 0 0 0 0 0 0.63 0"/>
<feBlend mode="normal" in2="shape" result="effect2_innerShadow_3_98"/>
</filter>
<filter id="filter16_f_3_98" x="512.139" y="382.347" width="320.85" height="143.132" filterUnits="userSpaceOnUse" color-interpolation-filters="sRGB">
<feFlood flood-opacity="0" result="BackgroundImageFix"/>
<feBlend mode="normal" in="SourceGraphic" in2="BackgroundImageFix" result="shape"/>
<feGaussianBlur stdDeviation="12.2559" result="effect1_foregroundBlur_3_98"/>
</filter>
<filter id="filter17_di_3_98" x="303.54" y="333.285" width="26.7001" height="21.8933" filterUnits="userSpaceOnUse" color-interpolation-filters="sRGB">
<feFlood flood-opacity="0" result="BackgroundImageFix"/>
<feColorMatrix in="SourceAlpha" type="matrix" values="0 0 0 0 0 0 0 0 0 0 0 0 0 0 0 0 0 0 127 0" result="hardAlpha"/>
<feOffset dy="-0.434189"/>
<feGaussianBlur stdDeviation="0.217094"/>
<feColorMatrix type="matrix" values="0 0 0 0 0.78755 0 0 0 0 0.78755 0 0 0 0 0.78755 0 0 0 0.19 0"/>
<feBlend mode="normal" in2="BackgroundImageFix" result="effect1_dropShadow_3_98"/>
<feBlend mode="normal" in="SourceGraphic" in2="effect1_dropShadow_3_98" result="shape"/>
<feColorMatrix in="SourceAlpha" type="matrix" values="0 0 0 0 0 0 0 0 0 0 0 0 0 0 0 0 0 0 127 0" result="hardAlpha"/>
<feOffset dy="2.17094"/>
<feGaussianBlur stdDeviation="1.08547"/>
<feComposite in2="hardAlpha" operator="arithmetic" k2="-1" k3="1"/>
<feColorMatrix type="matrix" values="0 0 0 0 0 0 0 0 0 0 0 0 0 0 0 0 0 0 0.74 0"/>
<feBlend mode="normal" in2="shape" result="effect2_innerShadow_3_98"/>
</filter>
<filter id="filter18_di_3_98" x="221.176" y="293.051" width="26.7001" height="21.8933" filterUnits="userSpaceOnUse" color-interpolation-filters="sRGB">
<feFlood flood-opacity="0" result="BackgroundImageFix"/>
<feColorMatrix in="SourceAlpha" type="matrix" values="0 0 0 0 0 0 0 0 0 0 0 0 0 0 0 0 0 0 127 0" result="hardAlpha"/>
<feOffset dy="-0.434189"/>
<feGaussianBlur stdDeviation="0.217094"/>
<feColorMatrix type="matrix" values="0 0 0 0 0.78755 0 0 0 0 0.78755 0 0 0 0 0.78755 0 0 0 0.19 0"/>
<feBlend mode="normal" in2="BackgroundImageFix" result="effect1_dropShadow_3_98"/>
<feBlend mode="normal" in="SourceGraphic" in2="effect1_dropShadow_3_98" result="shape"/>
<feColorMatrix in="SourceAlpha" type="matrix" values="0 0 0 0 0 0 0 0 0 0 0 0 0 0 0 0 0 0 127 0" result="hardAlpha"/>
<feOffset dy="2.17094"/>
<feGaussianBlur stdDeviation="1.08547"/>
<feComposite in2="hardAlpha" operator="arithmetic" k2="-1" k3="1"/>
<feColorMatrix type="matrix" values="0 0 0 0 0 0 0 0 0 0 0 0 0 0 0 0 0 0 0.74 0"/>
<feBlend mode="normal" in2="shape" result="effect2_innerShadow_3_98"/>
</filter>
<filter id="filter19_di_3_98" x="105.685" y="113.576" width="180.321" height="162.407" filterUnits="userSpaceOnUse" color-interpolation-filters="sRGB">
<feFlood flood-opacity="0" result="BackgroundImageFix"/>
<feColorMatrix in="SourceAlpha" type="matrix" values="0 0 0 0 0 0 0 0 0 0 0 0 0 0 0 0 0 0 127 0" result="hardAlpha"/>
<feOffset dy="0.905297"/>
<feGaussianBlur stdDeviation="0.452649"/>
<feColorMatrix type="matrix" values="0 0 0 0 0.925374 0 0 0 0 0.925374 0 0 0 0 0.925374 0 0 0 0.37 0"/>
<feBlend mode="normal" in2="BackgroundImageFix" result="effect1_dropShadow_3_98"/>
<feBlend mode="normal" in="SourceGraphic" in2="effect1_dropShadow_3_98" result="shape"/>
<feColorMatrix in="SourceAlpha" type="matrix" values="0 0 0 0 0 0 0 0 0 0 0 0 0 0 0 0 0 0 127 0" result="hardAlpha"/>
<feOffset dx="-6.03563" dy="4.36889"/>
<feGaussianBlur stdDeviation="3.01781"/>
<feComposite in2="hardAlpha" operator="arithmetic" k2="-1" k3="1"/>
<feColorMatrix type="matrix" values="0 0 0 0 0 0 0 0 0 0 0 0 0 0 0 0 0 0 0.63 0"/>
<feBlend mode="normal" in2="shape" result="effect2_innerShadow_3_98"/>
</filter>
<filter id="filter20_di_3_98" x="56.3077" y="102.612" width="61.6732" height="80.3853" filterUnits="userSpaceOnUse" color-interpolation-filters="sRGB">
<feFlood flood-opacity="0" result="BackgroundImageFix"/>
<feColorMatrix in="SourceAlpha" type="matrix" values="0 0 0 0 0 0 0 0 0 0 0 0 0 0 0 0 0 0 127 0" result="hardAlpha"/>
<feOffset dy="1.14068"/>
<feGaussianBlur stdDeviation="0.57034"/>
<feColorMatrix type="matrix" values="0 0 0 0 0.925374 0 0 0 0 0.925374 0 0 0 0 0.925374 0 0 0 0.37 0"/>
<feBlend mode="normal" in2="BackgroundImageFix" result="effect1_dropShadow_3_98"/>
<feBlend mode="normal" in="SourceGraphic" in2="effect1_dropShadow_3_98" result="shape"/>
<feColorMatrix in="SourceAlpha" type="matrix" values="0 0 0 0 0 0 0 0 0 0 0 0 0 0 0 0 0 0 127 0" result="hardAlpha"/>
<feOffset dx="-4.41214" dy="5.51517"/>
<feGaussianBlur stdDeviation="2.20607"/>
<feComposite in2="hardAlpha" operator="arithmetic" k2="-1" k3="1"/>
<feColorMatrix type="matrix" values="0 0 0 0 0 0 0 0 0 0 0 0 0 0 0 0 0 0 0.8 0"/>
<feBlend mode="normal" in2="shape" result="effect2_innerShadow_3_98"/>
</filter>
<filter id="filter21_f_3_98" x="85.1601" y="252.578" width="357.226" height="245.622" filterUnits="userSpaceOnUse" color-interpolation-filters="sRGB">
<feFlood flood-opacity="0" result="BackgroundImageFix"/>
<feBlend mode="normal" in="SourceGraphic" in2="BackgroundImageFix" result="shape"/>
<feGaussianBlur stdDeviation="1.89119" result="effect1_foregroundBlur_3_98"/>
</filter>
<linearGradient id="paint0_linear_3_98" x1="107.616" y1="118.217" x2="112.974" y2="38.5208" gradientUnits="userSpaceOnUse">
<stop stop-color="#3F3F3F"/>
<stop offset="1" stop-color="#5C5C5C"/>
</linearGradient>
<linearGradient id="paint1_linear_3_98" x1="100.866" y1="113.998" x2="106.18" y2="37.1663" gradientUnits="userSpaceOnUse">
<stop stop-color="#AAAAAA"/>
<stop offset="1" stop-color="#C2C2C2"/>
</linearGradient>
<linearGradient id="paint2_linear_3_98" x1="80.6195" y1="88.5612" x2="84.6331" y2="28.8574" gradientUnits="userSpaceOnUse">
<stop stop-color="#3F3F3F"/>
<stop offset="1" stop-color="#5C5C5C"/>
</linearGradient>
<linearGradient id="paint3_linear_3_98" x1="75.5623" y1="85.4007" x2="79.5433" y2="27.8427" gradientUnits="userSpaceOnUse">
<stop stop-color="#AAAAAA"/>
<stop offset="1" stop-color="#C2C2C2"/>
</linearGradient>
<linearGradient id="paint4_linear_3_98" x1="383.001" y1="492" x2="603.784" y2="46.3199" gradientUnits="userSpaceOnUse">
<stop stop-color="#CECBCB"/>
<stop offset="1" stop-color="white"/>
</linearGradient>
<linearGradient id="paint5_linear_3_98" x1="411.377" y1="594.091" x2="70.4875" y2="20.8032" gradientUnits="userSpaceOnUse">
<stop stop-color="#E1E1E1"/>
<stop offset="1" stop-color="white"/>
</linearGradient>
<linearGradient id="paint6_linear_3_98" x1="783.819" y1="118.212" x2="558.222" y2="308.279" gradientUnits="userSpaceOnUse">
<stop stop-color="#E8EAE9"/>
<stop offset="0.498386" stop-color="#707072"/>
<stop offset="1" stop-color="#2F3032"/>
</linearGradient>
<linearGradient id="paint7_linear_3_98" x1="162.81" y1="787.395" x2="189.052" y2="227.814" gradientUnits="userSpaceOnUse">
<stop stop-color="#E8EAE9"/>
<stop offset="0.498386" stop-color="#707072"/>
<stop offset="1" stop-color="#2F3032"/>
</linearGradient>
<linearGradient id="paint8_linear_3_98" x1="665.587" y1="509.002" x2="684.89" y2="446.356" gradientUnits="userSpaceOnUse">
<stop stop-color="#ECEAEA"/>
<stop offset="1" stop-color="white" stop-opacity="0"/>
</linearGradient>
<linearGradient id="paint9_linear_3_98" x1="8.01847" y1="570.297" x2="28.9369" y2="134.135" gradientUnits="userSpaceOnUse">
<stop stop-color="#E8EAE9"/>
<stop offset="0.498386" stop-color="#707072"/>
<stop offset="1" stop-color="#2F3032"/>
</linearGradient>
<linearGradient id="paint10_linear_3_98" x1="116.573" y1="286.588" x2="30.2389" y2="221.283" gradientUnits="userSpaceOnUse">
<stop stop-color="#E8EAE9"/>
<stop offset="0.498386" stop-color="#707072"/>
<stop offset="1" stop-color="#2F3032"/>
</linearGradient>
<linearGradient id="paint11_linear_3_98" x1="215.171" y1="469.282" x2="282.418" y2="337.584" gradientUnits="userSpaceOnUse">
<stop stop-color="#040404"/>
<stop offset="1" stop-color="#3C3C3C" stop-opacity="0"/>
</linearGradient>
</defs>
</svg>